<?xml version="1.0" standalone="no"?>
<!DOCTYPE svg PUBLIC "-//W3C//DTD SVG 20010904//EN"
 "http://www.w3.org/TR/2001/REC-SVG-20010904/DTD/svg10.dtd">
<svg version="1.0" xmlns="http://www.w3.org/2000/svg"
 width="300.000000pt" height="228.000000pt" viewBox="0 0 300.000000 228.000000"
 preserveAspectRatio="xMidYMid meet">
<metadata>
Created by potrace 1.10, written by Peter Selinger 2001-2011
</metadata>
<g transform="translate(0.000000,228.000000) scale(0.100000,-0.100000)"
fill="#000000" stroke="none">
<path d="M1530 1860 l185 -179 90 -1 c65 0 101 -6 130 -19 143 -64 141 -270
-2 -333 -49 -21 -72 -21 -183 5 -36 9 -210 41 -385 72 -176 31 -468 83 -650
115 -437 78 -419 74 -430 75 -26 1 -3 -29 73 -93 86 -72 187 -132 257 -151 55
-15 828 -103 1005 -115 82 -5 84 -4 56 11 -38 20 -121 32 -614 88 -313 35
-417 51 -467 69 -89 32 -199 105 -183 121 5 5 1086 -182 1273 -221 171 -36
197 -38 241 -24 49 16 113 75 135 125 36 78 17 182 -43 247 -46 48 -85 62
-191 66 l-99 4 -129 125 c-71 69 -129 132 -129 139 0 11 36 14 194 14 246 0
329 -11 423 -56 181 -86 287 -280 254 -460 -15 -82 -38 -129 -96 -194 -25 -28
-45 -54 -45 -59 0 -17 40 -43 86 -57 112 -34 213 -128 260 -243 32 -80 43
-219 24 -302 -45 -195 -198 -348 -388 -388 -61 -13 -712 -16 -712 -3 0 14 256
262 271 262 8 0 86 1 174 3 147 3 164 5 215 28 215 100 227 375 20 468 -59 27
-121 27 -145 1 -16 -17 -17 -25 -7 -59 20 -65 20 -66 -61 -67 -79 -1 -76 1
-297 -117 -130 -69 -201 -88 -250 -69 -28 11 -39 5 242 131 128 58 159 82 141
109 -19 30 -127 20 -352 -33 -209 -49 -253 -52 -315 -24 -36 17 -33 27 12 35
244 43 567 115 581 129 15 16 12 17 -49 12 -36 -4 -191 -31 -345 -62 -154 -30
-288 -55 -297 -55 -53 0 23 -78 101 -105 71 -24 118 -19 391 45 142 33 261 60
266 60 23 0 -32 -26 -253 -120 -134 -57 -243 -109 -243 -116 0 -23 91 -49 170
-49 69 0 82 4 160 44 47 24 119 63 162 88 137 79 216 80 313 6 27 -20 46 -30
42 -22 -3 8 -26 61 -52 118 -25 57 -44 105 -41 108 8 9 128 -27 156 -47 64
-46 97 -154 70 -234 -16 -49 -63 -102 -114 -129 -37 -20 -61 -22 -228 -27
l-188 -5 -184 -175 c-101 -96 -185 -177 -185 -180 -2 -9 783 0 839 10 91 16
196 74 271 150 104 106 159 239 159 388 0 156 -51 282 -154 377 -68 63 -130
95 -202 102 l-55 6 40 23 c151 91 183 381 61 559 -77 113 -215 201 -351 224
-38 6 -182 11 -340 11 l-274 -1 185 -179z"/>
<path d="M670 1206 c0 -25 99 -104 158 -127 44 -17 79 -22 152 -23 124 -1 575
13 664 20 65 6 68 8 50 21 -16 13 -60 14 -319 7 -486 -14 -470 -14 -548 24
-37 18 -67 37 -67 42 0 5 196 10 460 12 315 2 462 6 470 14 16 16 -203 24
-647 24 -314 0 -373 -2 -373 -14z"/>
</g>
</svg>
